# Blender v2.82 (sub 7) OBJ File: ''
# www.blender.org
mtllib plat.mtl
o Plane
v 5.027883 0.196430 -5.027883
v 5.504983 0.000001 -5.027883
v 5.504983 0.000001 -5.504983
v -5.027883 0.196430 -5.027883
v -5.027883 0.000001 -5.504983
v -5.504983 0.000001 -5.504983
v 5.027883 0.000001 -5.504983
v 1.675959 0.000001 -5.504983
v 5.504983 -0.000001 5.504983
v 5.504983 -0.000001 5.027883
v 5.027883 0.196428 5.027883
v 5.504983 0.000000 -1.675959
v -5.504983 -0.000001 5.504983
v -5.027883 -0.000001 5.504983
v -5.027883 0.196428 5.027883
v -5.027883 0.196429 -1.675959
v -5.504983 0.000001 -5.027883
v 5.027883 -0.000001 5.504983
v 1.675959 0.196428 5.027883
v 5.027883 0.196429 -1.675959
v 1.675959 0.196430 -5.027883
v 5.504983 -0.000000 1.675959
v 5.027883 0.196429 1.675959
v 5.504983 0.000000 -1.536298
v -5.027883 0.196429 1.675959
v -5.504983 -0.000000 1.675959
v -5.504983 0.000000 -1.536298
v -5.027883 0.078694 -1.536298
v 1.675959 0.196429 1.675959
v 5.027883 0.078694 -1.536298
v 1.675959 0.196429 -1.675959
v -1.675959 0.196430 -5.027883
v -1.675959 0.000001 -5.504983
v 1.536298 0.000001 -5.504983
v -1.675959 -0.000001 5.504983
v -1.675959 0.196428 5.027883
v 1.536298 -0.000001 5.504983
v 1.675959 -0.000001 5.504983
v -1.675959 0.196429 -1.675959
v 1.536298 0.078695 -5.027883
v -1.675959 0.196429 1.675959
v 1.536298 0.078693 1.675959
v -1.675959 0.078694 -1.536298
v 1.536298 0.078694 -1.536298
v 1.675959 0.078694 -1.536298
v -1.536298 0.078695 -5.027883
v -1.536298 0.000001 -5.504983
v -1.536298 -0.000001 5.504983
v -1.536298 0.078693 5.027883
v 1.536298 0.078693 5.027883
v -1.536298 0.078694 -1.675959
v 1.536298 0.078694 -1.675959
v -1.536298 0.078693 1.675959
v -1.536298 0.078694 -1.536298
v 5.504983 -0.000000 1.536298
v -5.027883 0.078693 1.536298
v -5.504983 -0.000000 1.536298
v 5.027883 0.078693 1.536298
v 1.675959 0.078693 1.536298
v -1.675959 0.078693 1.536298
v 1.536298 0.078693 1.536298
v -1.536298 0.078693 1.536298
v -5.504983 -0.000001 5.027883
v -5.504983 0.000000 -1.675959
vt 0.052113 0.052113
vt 0.009613 0.052113
vt 0.009613 0.009613
vt 0.947887 0.052113
vt 0.947887 0.009613
vt 0.990387 0.009613
vt 0.052113 0.009613
vt 0.350704 0.009613
vt 0.009613 0.990387
vt 0.009613 0.947887
vt 0.052113 0.947887
vt 0.009613 0.350704
vt 0.990387 0.990387
vt 0.947887 0.990387
vt 0.947887 0.947887
vt 0.947887 0.350704
vt 0.990387 0.052113
vt 0.052113 0.990387
vt 0.350704 0.947887
vt 0.052113 0.350704
vt 0.350704 0.052113
vt 0.009613 0.649296
vt 0.052113 0.649296
vt 0.009613 0.363146
vt 0.947887 0.649296
vt 0.990387 0.649296
vt 0.990387 0.363146
vt 0.947887 0.363146
vt 0.350704 0.649296
vt 0.052113 0.363146
vt 0.350704 0.350704
vt 0.649296 0.052113
vt 0.649296 0.009613
vt 0.363146 0.009613
vt 0.649296 0.990387
vt 0.649296 0.947887
vt 0.363146 0.990387
vt 0.350704 0.990387
vt 0.649296 0.350704
vt 0.363146 0.052113
vt 0.649296 0.649296
vt 0.363146 0.649296
vt 0.649296 0.363146
vt 0.363146 0.363146
vt 0.350704 0.363146
vt 0.636854 0.052113
vt 0.636854 0.009613
vt 0.636854 0.990387
vt 0.636854 0.947887
vt 0.363146 0.947887
vt 0.636854 0.350704
vt 0.363146 0.350704
vt 0.636854 0.649296
vt 0.636854 0.363146
vt 0.009613 0.636854
vt 0.947887 0.636854
vt 0.990387 0.636854
vt 0.052113 0.636854
vt 0.350704 0.636854
vt 0.649296 0.636854
vt 0.363146 0.636854
vt 0.636854 0.636854
vt 0.990387 0.947887
vt 0.990387 0.350704
vn 0.3807 0.9247 0.0000
vn 0.0000 0.9247 -0.3807
vn 0.0000 0.9247 0.3807
vn -0.3807 0.9247 0.0000
vn 0.0000 1.0000 0.0000
vn -0.1251 0.7586 0.6395
vn 0.0000 0.7646 0.6445
vn -0.6445 0.7646 0.0000
vn 0.6395 0.7586 -0.1251
vn 0.0000 0.9867 -0.1627
vn 0.6395 0.7586 0.1251
vn 0.0000 0.9867 0.1627
vn 0.6445 0.7646 0.0000
vn 0.1627 0.9867 0.0000
vn -0.1251 0.7586 -0.6395
vn -0.1627 0.9867 0.0000
vn 0.0000 0.7646 -0.6445
vn 0.1251 0.7586 0.6395
vn -0.6395 0.7586 -0.1251
vn -0.6395 0.7586 0.1251
vn 0.1251 0.7586 -0.6395
usemtl None
s 1
f 1/1/1 2/2/1 3/3/1
f 4/4/2 5/5/2 6/6/2
f 1/1/2 7/7/2 8/8/2
f 9/9/1 10/10/1 11/11/1
f 12/12/1 2/2/1 1/1/1
f 13/13/3 14/14/3 15/15/3
f 16/16/4 4/4/4 17/17/4
f 18/18/3 11/11/3 19/19/3
f 20/20/5 1/1/5 21/21/5
f 10/10/1 22/22/1 23/23/1
f 24/24/1 12/12/1 20/20/1
f 15/15/4 25/25/4 26/26/4
f 27/27/6 28/28/6 16/16/6
f 11/11/5 23/23/5 29/29/5
f 30/30/7 20/20/7 31/31/7
f 32/32/2 33/33/2 5/5/2
f 21/21/2 8/8/2 34/34/2
f 35/35/3 36/36/3 15/15/3
f 37/37/3 38/38/3 19/19/3
f 39/39/5 32/32/5 4/4/5
f 31/31/8 21/21/8 40/40/8
f 36/36/5 41/41/5 25/25/5
f 19/19/8 29/29/8 42/42/8
f 43/43/7 39/39/7 16/16/7
f 44/44/7 45/45/7 31/31/7
f 32/32/9 46/46/9 47/47/9
f 40/40/10 34/34/10 47/47/10
f 48/48/11 49/49/11 36/36/11
f 37/37/12 50/50/12 49/49/12
f 51/51/13 46/46/13 32/32/13
f 52/52/5 40/40/5 46/46/5
f 49/49/13 53/53/13 41/41/13
f 50/50/5 42/42/5 53/53/5
f 54/54/13 51/51/13 39/39/13
f 44/44/5 52/52/5 51/51/5
f 23/23/1 22/22/1 55/55/1
f 55/55/14 24/24/14 30/30/14
f 25/25/15 56/56/15 57/57/15
f 57/57/16 56/56/16 28/28/16
f 23/23/17 58/58/17 59/59/17
f 58/58/5 30/30/5 45/45/5
f 41/41/17 60/60/17 56/56/17
f 60/60/5 43/43/5 28/28/5
f 29/29/17 59/59/17 61/61/17
f 59/59/5 45/45/5 44/44/5
f 41/41/13 53/53/13 62/62/13
f 62/62/5 54/54/5 43/43/5
f 42/42/5 61/61/5 62/62/5
f 61/61/5 44/44/5 54/54/5
f 7/7/2 1/1/2 3/3/2
f 17/17/4 4/4/4 6/6/4
f 21/21/2 1/1/2 8/8/2
f 18/18/3 9/9/3 11/11/3
f 20/20/1 12/12/1 1/1/1
f 63/63/4 13/13/4 15/15/4
f 64/64/4 16/16/4 17/17/4
f 38/38/3 18/18/3 19/19/3
f 31/31/5 20/20/5 21/21/5
f 11/11/1 10/10/1 23/23/1
f 30/30/18 24/24/18 20/20/18
f 63/63/4 15/15/4 26/26/4
f 64/64/4 27/27/4 16/16/4
f 19/19/5 11/11/5 29/29/5
f 45/45/7 30/30/7 31/31/7
f 4/4/2 32/32/2 5/5/2
f 40/40/19 21/21/19 34/34/19
f 14/14/3 35/35/3 15/15/3
f 50/50/20 37/37/20 19/19/20
f 16/16/5 39/39/5 4/4/5
f 52/52/8 31/31/8 40/40/8
f 15/15/5 36/36/5 25/25/5
f 50/50/8 19/19/8 42/42/8
f 28/28/7 43/43/7 16/16/7
f 52/52/8 44/44/8 31/31/8
f 33/33/2 32/32/2 47/47/2
f 46/46/10 40/40/10 47/47/10
f 35/35/3 48/48/3 36/36/3
f 48/48/12 37/37/12 49/49/12
f 39/39/13 51/51/13 32/32/13
f 51/51/5 52/52/5 46/46/5
f 36/36/13 49/49/13 41/41/13
f 49/49/5 50/50/5 53/53/5
f 43/43/7 54/54/7 39/39/7
f 54/54/5 44/44/5 51/51/5
f 58/58/21 23/23/21 55/55/21
f 58/58/14 55/55/14 30/30/14
f 26/26/4 25/25/4 57/57/4
f 27/27/16 57/57/16 28/28/16
f 29/29/17 23/23/17 59/59/17
f 59/59/5 58/58/5 45/45/5
f 25/25/17 41/41/17 56/56/17
f 56/56/5 60/60/5 28/28/5
f 42/42/8 29/29/8 61/61/8
f 61/61/5 59/59/5 44/44/5
f 60/60/17 41/41/17 62/62/17
f 60/60/5 62/62/5 43/43/5
f 53/53/5 42/42/5 62/62/5
f 62/62/5 61/61/5 54/54/5
